<svg xmlns="http://www.w3.org/2000/svg" width="1366" height="143.796" viewBox="0 0 1366 143.796">
  <g id="Group_21" data-name="Group 21" transform="translate(0 -624.204)">
    <path id="Path_2" data-name="Path 2" d="M1366,554.279H0V497.007q92.317-19.65,111.967,72.667,26.825-85.142,111.967-58.326,65.781-46.177,111.967,19.6,75.457-36.511,111.967,38.937,29.4-82.567,111.967-53.166,43.238-68.729,111.967-25.5,75.643-36.324,111.967,39.31,57.439-9.741,67.18,47.7,22.449-89.518,111.967-67.068,42.958-24.222,67.18,18.727,51.421-15.759,67.18,35.652,7.772-59.408,67.18-51.636,27.143-40.038,67.18-12.895,49.462-17.719,67.18,31.743,55.06-12.12,67.18,42.94Z" transform="translate(0 189.77)" fill="#fff"/>
    <path id="Path_3" data-name="Path 3" d="M1366,542.1H0V434.069q33.625-30.406,64.031,3.228,44.724-19.307,64.031,25.408,50.3-13.731,64.031,36.569,8.386-55.654,64.031-47.267,21.273-42.759,64.031-21.495,48.095-58.624,106.719-10.53,56.588-7.444,64.031,49.144,67.909-38.81,106.719,29.1.667-63.373,64.031-62.706,25.826-38.205,64.031-12.379,71.982-34.728,106.719,37.254,43.337-63.382,106.719-20.054,78.5-28.218,106.719,50.282,44.653-62.066,106.719-17.413,43.879-62.84,106.719-18.969,72.231-34.488,106.719,37.743Z" transform="translate(0 225.896)" fill="#fff"/>
  </g>
</svg>
