<svg xmlns="http://www.w3.org/2000/svg" width="236.313" height="236.312" viewBox="0 0 236.313 236.312">
  <path id="Icon_awesome-bus-alt" data-name="Icon awesome-bus-alt" d="M225.235,59.078h-3.692V36.924C221.543,16.246,175.757,0,118.156,0S14.77,16.246,14.77,36.924V59.078H11.077A11.077,11.077,0,0,0,0,70.155v36.924a11.08,11.08,0,0,0,11.077,11.077H14.77V192a14.771,14.771,0,0,0,14.77,14.77v14.77a14.771,14.771,0,0,0,14.77,14.77h14.77a14.771,14.771,0,0,0,14.77-14.77v-14.77h88.617v14.77a14.771,14.771,0,0,0,14.77,14.77H192a14.771,14.771,0,0,0,14.77-14.77v-14.77h2.954a11.649,11.649,0,0,0,11.816-11.816v-76.8h3.692a11.08,11.08,0,0,0,11.077-11.077V70.155A11.077,11.077,0,0,0,225.235,59.078ZM73.848,33.231a3.691,3.691,0,0,1,3.692-3.692h81.232a3.691,3.691,0,0,1,3.692,3.692v7.385a3.691,3.691,0,0,1-3.692,3.692H77.54a3.691,3.691,0,0,1-3.692-3.692ZM51.693,184.619a14.77,14.77,0,1,1,14.77-14.77A14.771,14.771,0,0,1,51.693,184.619Zm59.078-51.693H59.078a14.771,14.771,0,0,1-14.77-14.77V73.848a14.771,14.771,0,0,1,14.77-14.77h51.693Zm14.77,0V59.078h51.693A14.771,14.771,0,0,1,192,73.848v44.309a14.771,14.771,0,0,1-14.77,14.77Zm59.078,51.693a14.77,14.77,0,1,1,14.77-14.77A14.771,14.771,0,0,1,184.619,184.619Z" fill="#fff"/>
</svg>
