<svg xmlns="http://www.w3.org/2000/svg" width="60" height="60" viewBox="0 0 60 60">
  <path id="Subtraction_1" data-name="Subtraction 1" d="M30,60A30.008,30.008,0,0,1,18.323,2.358,30.008,30.008,0,0,1,41.677,57.643,29.813,29.813,0,0,1,30,60ZM23.18,43.642H36.821v2.273a2.276,2.276,0,0,0,2.273,2.274h2.274a2.276,2.276,0,0,0,2.273-2.274V43.642H44.1a1.8,1.8,0,0,0,1.819-1.819V30h.569a1.707,1.707,0,0,0,1.706-1.7V22.611a1.707,1.707,0,0,0-1.706-1.705h-.569V17.5c0-1.538-1.645-2.971-4.632-4.036A34.95,34.95,0,0,0,30,11.811a34.95,34.95,0,0,0-11.283,1.648c-2.987,1.065-4.633,2.5-4.633,4.036v3.41h-.568a1.707,1.707,0,0,0-1.706,1.705V28.3A1.707,1.707,0,0,0,13.516,30h.568V41.368a2.276,2.276,0,0,0,2.274,2.273v2.273a2.276,2.276,0,0,0,2.273,2.274h2.273a2.277,2.277,0,0,0,2.274-2.274V43.643Zm17.052-3.41a2.274,2.274,0,1,1,2.273-2.274A2.277,2.277,0,0,1,40.232,40.232Zm-20.463,0a2.274,2.274,0,1,1,2.273-2.274A2.276,2.276,0,0,1,19.769,40.232Zm19.326-7.958H31.136V20.905h7.958a2.277,2.277,0,0,1,2.274,2.274V30A2.277,2.277,0,0,1,39.094,32.274Zm-10.231,0H20.905A2.276,2.276,0,0,1,18.632,30V23.18a2.276,2.276,0,0,1,2.273-2.274h7.958V32.273Zm7.39-13.642H23.747a.569.569,0,0,1-.568-.569V16.926a.569.569,0,0,1,.568-.568H36.253a.569.569,0,0,1,.568.568v1.137A.569.569,0,0,1,36.253,18.632Z" transform="translate(0 0)" fill="#fff"/>
</svg>
