<svg xmlns="http://www.w3.org/2000/svg" width="838.316" height="233" viewBox="0 0 838.316 233">
  <g id="Group_22" data-name="Group 22" transform="translate(-271.601 -33.549)">
    <g id="Group_12" data-name="Group 12" transform="translate(376.211 208.26)" opacity="0.226">
      <ellipse id="Ellipse_3" data-name="Ellipse 3" cx="6.5" cy="6" rx="6.5" ry="6" transform="translate(-0.211 0.289)" fill="#f2f2f2"/>
      <ellipse id="Ellipse_4" data-name="Ellipse 4" cx="6.5" cy="6" rx="6.5" ry="6" transform="translate(-0.211 23.289)" fill="#f2f2f2"/>
      <circle id="Ellipse_5" data-name="Ellipse 5" cx="6.5" cy="6.5" r="6.5" transform="translate(-0.211 45.289)" fill="#f2f2f2"/>
      <circle id="Ellipse_6" data-name="Ellipse 6" cx="6.5" cy="6.5" r="6.5" transform="translate(22.789 45.289)" fill="#f2f2f2" opacity="0.464"/>
      <ellipse id="Ellipse_7" data-name="Ellipse 7" cx="6.5" cy="6" rx="6.5" ry="6" transform="translate(22.789 23.289)" fill="#f2f2f2"/>
      <ellipse id="Ellipse_8" data-name="Ellipse 8" cx="7" cy="6.5" rx="7" ry="6.5" transform="translate(44.789 45.289)" fill="#f2f2f2" opacity="0.505"/>
    </g>
    <g id="Group_13" data-name="Group 13" transform="translate(1065.292 92.133) rotate(180)" opacity="0.226">
      <path id="Path_11" data-name="Path 11" d="M6.238,0A6.238,6.238,0,1,1,0,6.238,6.238,6.238,0,0,1,6.238,0Z" transform="translate(0 0)" fill="#f2f2f2" opacity="0.386"/>
      <ellipse id="Ellipse_9" data-name="Ellipse 9" cx="6" cy="6.5" rx="6" ry="6.5" transform="translate(0.292 22.585)" fill="#f2f2f2" opacity="0.458"/>
      <ellipse id="Ellipse_10" data-name="Ellipse 10" cx="6" cy="6.5" rx="6" ry="6.5" transform="translate(0.292 45.585)" fill="#f2f2f2"/>
      <ellipse id="Ellipse_11" data-name="Ellipse 11" cx="6" cy="6.5" rx="6" ry="6.5" transform="translate(23.292 45.585)" fill="#f2f2f2"/>
      <ellipse id="Ellipse_12" data-name="Ellipse 12" cx="6" cy="6.5" rx="6" ry="6.5" transform="translate(23.292 22.585)" fill="#f2f2f2"/>
      <circle id="Ellipse_13" data-name="Ellipse 13" cx="6.5" cy="6.5" r="6.5" transform="translate(45.292 45.585)" fill="#f2f2f2"/>
    </g>
    <g id="Group_14" data-name="Group 14" transform="translate(289.836 50.865)" opacity="0.163">
      <path id="Path_12" data-name="Path 12" d="M9.117,0l9.117,15.356H0Z" fill="#f2f2f2" opacity="0.525"/>
      <path id="Path_13" data-name="Path 13" d="M9.117,0l9.117,15.356H0Z" transform="translate(0 18.235)" fill="#f2f2f2"/>
    </g>
    <g id="Group_15" data-name="Group 15" transform="translate(885.596 196.908)" opacity="0.295">
      <path id="Path_14" data-name="Path 14" d="M7.994,0l7.994,13.9H0Z" transform="translate(0.279 16.508) rotate(-91)" fill="#f2f2f2" opacity="0.271"/>
      <path id="Path_15" data-name="Path 15" d="M7.994,0l7.994,13.9H0Z" transform="translate(16.266 16.229) rotate(-91)" fill="#f2f2f2"/>
    </g>
    <g id="Group_16" data-name="Group 16" transform="matrix(-0.035, 0.999, -0.999, -0.035, 1110.378, 160.405)" opacity="0.299">
      <path id="Path_16" data-name="Path 16" d="M7.066,0l7.066,12.289H0Z" transform="translate(0.247 14.592) rotate(-91)" fill="#f2f2f2" opacity="0.477"/>
      <path id="Path_17" data-name="Path 17" d="M7.066,0l7.066,12.289H0Z" transform="translate(14.377 14.345) rotate(-91)" fill="#f2f2f2"/>
    </g>
    <g id="Group_17" data-name="Group 17" transform="translate(1023.064 226.494)">
      <path id="Path_18" data-name="Path 18" d="M0,0H3.839V23.033H0Z" transform="translate(0)" fill="#e2e2e2" opacity="0.299"/>
      <path id="Path_19" data-name="Path 19" d="M0,0H3.839V25.913H0Z" transform="translate(6.718 8.637)" fill="#e2e2e2" opacity="0.172"/>
    </g>
    <g id="Group_18" data-name="Group 18" transform="translate(271.601 172.75)">
      <path id="Path_20" data-name="Path 20" d="M0,0H4.8V25.913H0Z" transform="translate(0)" fill="#e2e2e2" opacity="0.299"/>
      <path id="Path_21" data-name="Path 21" d="M0,0H4.8V29.751H0Z" transform="translate(7.678 9.597)" fill="#e2e2e2" opacity="0.191"/>
    </g>
  </g>
</svg>
